<?xml version="1.0" standalone="no"?>
<!DOCTYPE svg PUBLIC "-//W3C//DTD SVG 20010904//EN"
 "http://www.w3.org/TR/2001/REC-SVG-20010904/DTD/svg10.dtd">
<svg version="1.0" xmlns="http://www.w3.org/2000/svg"
 width="125.000000pt" height="125.000000pt" viewBox="0 0 125.000000 125.000000"
 preserveAspectRatio="xMidYMid meet">

<g transform="translate(0.000000,125.000000) scale(0.100000,-0.100000)"
fill="#000000" stroke="none">
<path d="M795 835 c-28 -27 -31 -49 -11 -84 12 -23 11 -31 -17 -88 -25 -51
-36 -63 -55 -63 -14 0 -36 -13 -51 -29 -26 -28 -30 -29 -91 -24 -51 5 -68 11
-85 31 -45 52 -125 20 -125 -49 0 -64 88 -95 127 -46 15 19 31 25 91 30 60 6
72 5 72 -8 0 -22 46 -48 73 -41 33 8 63 -43 49 -83 -13 -36 3 -71 41 -89 45
-22 97 15 97 69 0 31 -47 72 -75 67 -38 -8 -68 30 -60 76 4 21 2 48 -4 64 -11
25 -8 35 21 88 19 32 40 59 48 59 44 1 80 37 80 81 0 24 -47 64 -75 64 -14 0
-37 -11 -50 -25z m83 -17 c21 -21 14 -57 -14 -70 -31 -14 -57 -1 -62 31 -7 42
46 69 76 39z m-416 -255 c10 -9 18 -24 18 -34 0 -17 -35 -49 -52 -49 -11 0
-48 38 -48 50 0 14 37 50 52 50 6 0 20 -7 30 -17z m282 1 c21 -20 20 -43 -1
-66 -20 -22 -37 -23 -57 -2 -21 21 -20 61 2 73 24 15 38 13 56 -5z m133 -190
c12 -19 11 -24 -5 -44 -24 -30 -69 -21 -78 15 -13 52 52 75 83 29z"/>
</g>
</svg>
