<?xml version="1.0" encoding="UTF-8"?>
<!DOCTYPE svg PUBLIC "-//W3C//DTD SVG 1.1//EN" "http://www.w3.org/Graphics/SVG/1.1/DTD/svg11.dtd">
<svg xmlns="http://www.w3.org/2000/svg" version="1.1" width="390px" height="390px" style="shape-rendering:geometricPrecision; text-rendering:geometricPrecision; image-rendering:optimizeQuality; fill-rule:evenodd; clip-rule:evenodd" xmlns:xlink="http://www.w3.org/1999/xlink">
<g><path style="opacity:1" fill="#fefefe" d="M -0.5,-0.5 C 129.5,-0.5 259.5,-0.5 389.5,-0.5C 389.5,129.5 389.5,259.5 389.5,389.5C 259.5,389.5 129.5,389.5 -0.5,389.5C -0.5,259.5 -0.5,129.5 -0.5,-0.5 Z"/></g>
<g><path style="opacity:1" fill="#abc8d7" d="M 142.5,19.5 C 175.833,19.5 209.167,19.5 242.5,19.5C 242.5,52.5 242.5,85.5 242.5,118.5C 209.167,118.5 175.833,118.5 142.5,118.5C 142.5,85.5 142.5,52.5 142.5,19.5 Z"/></g>
<g><path style="opacity:1" fill="#5a94b1" d="M 143.5,20.5 C 176.167,20.5 208.833,20.5 241.5,20.5C 241.5,52.8333 241.5,85.1667 241.5,117.5C 208.833,117.5 176.167,117.5 143.5,117.5C 143.5,85.1667 143.5,52.8333 143.5,20.5 Z"/></g>
<g><path style="opacity:1" fill="#377799" d="M 270.5,140.5 C 301.833,140.5 333.167,140.5 364.5,140.5C 364.5,171.5 364.5,202.5 364.5,233.5C 333.167,233.5 301.833,233.5 270.5,233.5C 270.5,202.5 270.5,171.5 270.5,140.5 Z"/></g>
<g><path style="opacity:1" fill="#c2e0e0" d="M 119.5,142.5 C 120.498,174.996 120.832,207.662 120.5,240.5C 87.5,240.5 54.5,240.5 21.5,240.5C 21.5,207.167 21.5,173.833 21.5,140.5C 54.3442,140.38 87.0109,141.046 119.5,142.5 Z"/></g>
<g><path style="opacity:1" fill="#98cdcb" d="M 119.5,142.5 C 119.5,174.833 119.5,207.167 119.5,239.5C 87.1667,239.5 54.8333,239.5 22.5,239.5C 22.5,207.167 22.5,174.833 22.5,142.5C 54.8333,142.5 87.1667,142.5 119.5,142.5 Z"/></g>
<g><path style="opacity:1" fill="#b5e0e2" d="M 142.5,262.5 C 175.833,262.5 209.167,262.5 242.5,262.5C 242.5,295.833 242.5,329.167 242.5,362.5C 209.167,362.5 175.833,362.5 142.5,362.5C 142.5,329.167 142.5,295.833 142.5,262.5 Z"/></g>
<g><path style="opacity:1" fill="#6ec4c6" d="M 143.5,263.5 C 176.167,263.5 208.833,263.5 241.5,263.5C 241.5,296.167 241.5,328.833 241.5,361.5C 208.833,361.5 176.167,361.5 143.5,361.5C 143.5,328.833 143.5,296.167 143.5,263.5 Z"/></g>
</svg>
