<?xml version="1.0" standalone="no"?>
<!DOCTYPE svg PUBLIC "-//W3C//DTD SVG 20010904//EN"
 "http://www.w3.org/TR/2001/REC-SVG-20010904/DTD/svg10.dtd">
<svg version="1.0" xmlns="http://www.w3.org/2000/svg"
 width="32.000000pt" height="32.000000pt" viewBox="0 0 32.000000 32.000000"
 preserveAspectRatio="xMidYMid meet">

<g transform="translate(0.000000,32.000000) scale(0.100000,-0.100000)"
fill="#000000" stroke="none">
<path d="M164 238 l0 -68 33 -11 c51 -17 97 2 111 46 6 23 7 47 1 68 -9 32 -9
32 -77 33 l-68 0 0 -68z m96 27 c0 -8 7 -15 15 -15 8 0 15 -7 15 -15 0 -8 -7
-15 -15 -15 -8 0 -15 -9 -15 -20 0 -13 -7 -20 -20 -20 -11 0 -20 6 -20 14 0 7
-9 16 -20 19 -23 6 -17 37 6 37 8 0 14 7 14 15 0 8 9 15 20 15 11 0 20 -7 20
-15z"/>
<path d="M70 65 c-10 -12 -16 -13 -26 -4 -10 8 -14 8 -14 0 0 -6 6 -11 13 -11
9 0 9 -2 0 -8 -8 -5 1 -8 22 -9 28 -1 35 3 35 17 0 26 -15 33 -30 15z m20 -11
c0 -8 -5 -12 -10 -9 -6 4 -8 11 -5 16 9 14 15 11 15 -7z"/>
<path d="M114 69 c-3 -6 -1 -15 6 -19 10 -6 9 -9 -1 -13 -10 -4 -9 -6 4 -6 19
-1 23 14 7 24 -6 4 -8 11 -5 16 4 5 4 9 1 9 -3 0 -8 -5 -12 -11z"/>
<path d="M151 54 c0 -16 3 -23 6 -16 4 10 8 10 19 1 11 -9 14 -7 14 11 0 13
-3 20 -7 17 -3 -4 -12 -2 -20 4 -10 9 -13 6 -12 -17z"/>
<path d="M250 56 c0 -9 -5 -16 -11 -16 -5 0 -7 4 -4 10 3 6 1 10 -4 10 -6 0
-11 -7 -11 -15 0 -8 9 -15 20 -15 11 0 20 6 20 13 0 8 4 7 11 -3 8 -12 10 -12
7 4 -4 24 -28 34 -28 12z"/>
</g>
</svg>
