<?xml version="1.0" standalone="no"?>
<!DOCTYPE svg PUBLIC "-//W3C//DTD SVG 20010904//EN"
 "http://www.w3.org/TR/2001/REC-SVG-20010904/DTD/svg10.dtd">
<svg version="1.0" xmlns="http://www.w3.org/2000/svg"
 width="80.000000pt" height="80.000000pt" viewBox="0 0 80.000000 80.000000"
 preserveAspectRatio="xMidYMid meet">

<g transform="translate(0.000000,80.000000) scale(0.100000,-0.100000)"
fill="#000000" stroke="none">
<path d="M130 735 c0 -37 4 -65 10 -65 6 0 10 25 10 55 0 52 1 55 25 55 24 0
25 -3 25 -55 l0 -55 45 0 45 0 0 55 c0 52 1 55 25 55 24 0 25 -3 25 -55 l0
-55 40 0 40 0 0 55 c0 52 1 55 25 55 24 0 25 -3 25 -55 l0 -55 45 0 45 0 0 55
c0 52 1 55 25 55 24 0 25 -3 25 -55 0 -30 5 -55 10 -55 6 0 10 28 10 65 l0 65
-45 0 -45 0 0 -55 c0 -52 -1 -55 -25 -55 -24 0 -25 3 -25 55 l0 55 -45 0 -45
0 0 -55 c0 -52 -1 -55 -25 -55 -24 0 -25 3 -25 55 l0 55 -40 0 -40 0 0 -55 c0
-52 -1 -55 -25 -55 -24 0 -25 3 -25 55 l0 55 -45 0 -45 0 0 -65z"/>
<path d="M130 411 c0 -214 7 -254 56 -318 13 -18 46 -45 72 -60 40 -24 58 -28
122 -28 64 0 82 4 122 28 108 63 128 122 128 384 l0 193 -250 0 -250 0 0 -199z
m299 59 l181 -120 0 -62 c0 -35 -5 -81 -11 -103 -11 -41 -53 -105 -69 -105 -5
0 -91 56 -192 124 l-183 124 -3 131 -3 131 50 0 c46 0 60 -7 230 -120z m181
14 c0 -89 -2 -105 -15 -101 -15 6 -283 183 -299 198 -6 5 59 9 152 9 l162 0 0
-106z m-111 -431 c-15 -18 -75 -33 -129 -33 -61 0 -119 29 -163 80 -41 49 -57
93 -57 161 l0 47 180 -121 c141 -94 177 -123 169 -134z"/>
<path d="M205 520 c-5 -9 -1 -19 13 -31 12 -9 22 -22 22 -28 0 -6 18 -23 40
-37 38 -25 40 -29 40 -77 0 -43 -2 -48 -15 -37 -13 11 -15 8 -15 -19 0 -27 3
-31 28 -31 20 0 32 8 45 30 18 30 41 42 31 16 -3 -8 2 -26 11 -39 9 -14 12
-27 6 -29 -5 -1 -11 -12 -13 -23 -4 -28 46 -34 61 -7 9 18 -1 67 -22 99 -5 7
-1 10 11 6 13 -3 19 -14 19 -34 0 -16 9 -43 21 -59 26 -35 27 -40 7 -40 -19 0
-19 -14 0 -30 13 -10 19 -9 36 6 18 16 21 27 16 77 -3 31 -1 57 4 57 5 0 9 9
9 19 0 13 -27 38 -77 74 -43 30 -92 69 -110 85 -19 18 -47 32 -68 35 -19 3
-42 10 -50 17 -22 18 -20 -8 2 -32 9 -10 13 -21 9 -25 -6 -7 -36 28 -47 56 -5
12 -7 12 -14 1z"/>
<path d="M195 430 c-10 -11 -13 -20 -8 -20 13 0 38 29 31 35 -3 3 -13 -4 -23
-15z"/>
<path d="M206 412 c-15 -18 -15 -20 8 -45 18 -20 35 -27 61 -27 34 0 36 2 33
28 -3 24 -7 27 -35 24 -27 -2 -33 2 -33 18 0 25 -12 26 -34 2z"/>
<path d="M267 313 c-9 -9 -9 -43 1 -43 4 0 8 11 8 25 2 27 1 29 -9 18z"/>
<path d="M370 223 c0 -30 9 -27 15 6 2 11 0 21 -6 21 -5 0 -9 -12 -9 -27z"/>
<path d="M460 154 c0 -8 32 -33 43 -34 5 0 5 4 2 10 -8 13 -45 33 -45 24z"/>
</g>
</svg>
